<?xml version="1.0" standalone="no"?>
<!DOCTYPE svg PUBLIC "-//W3C//DTD SVG 20010904//EN"
 "http://www.w3.org/TR/2001/REC-SVG-20010904/DTD/svg10.dtd">
<svg version="1.0" xmlns="http://www.w3.org/2000/svg"
 width="260.000000pt" height="260.000000pt" viewBox="0 0 260.000000 260.000000"
 preserveAspectRatio="xMidYMid meet">
<metadata>
Created by potrace 1.11, written by Peter Selinger 2001-2013
</metadata>
<g transform="translate(0.000000,260.000000) scale(0.100000,-0.100000)"
fill="#000000" stroke="none">
<path d="M726 2343 c-6 -7 -29 -13 -53 -15 -7 -1 -13 -5 -13 -10 0 -4 -6 -8
-13 -8 -16 0 -79 -69 -72 -80 3 -5 1 -11 -5 -15 -6 -4 -8 -11 -5 -16 4 -5 2
-9 -3 -9 -4 0 -8 -21 -7 -47 1 -38 -3 -51 -19 -63 -12 -8 -24 -14 -28 -12 -5
1 -8 -3 -8 -9 0 -5 -4 -7 -10 -4 -5 3 -10 1 -10 -6 0 -7 -3 -10 -6 -6 -4 3
-24 -3 -45 -14 -22 -11 -39 -17 -39 -13 0 4 -6 1 -13 -5 -8 -6 -17 -8 -20 -4
-4 3 -7 1 -7 -6 0 -8 -7 -11 -15 -7 -8 3 -15 0 -15 -6 0 -6 -3 -8 -7 -5 -3 4
-13 1 -21 -6 -13 -10 -14 -9 -8 1 5 8 -5 6 -27 -5 -19 -10 -33 -20 -31 -22 2
-2 -1 -12 -7 -22 -6 -13 -6 -19 1 -19 5 0 10 -7 10 -15 0 -9 6 -12 15 -9 8 4
22 1 30 -6 12 -10 16 -9 21 4 5 12 10 14 19 6 6 -5 15 -7 18 -3 4 3 7 0 7 -8
0 -11 2 -11 10 1 5 8 10 10 10 5 0 -12 94 -14 106 -3 4 4 13 3 21 -3 10 -9 13
-8 13 1 0 10 3 10 14 1 10 -8 16 -9 21 -1 4 7 12 7 25 0 10 -6 21 -6 24 -2 12
19 125 -1 127 -22 0 -6 2 -19 4 -28 2 -10 -2 -18 -8 -18 -5 0 -7 -3 -4 -7 13
-12 -58 -96 -110 -130 -13 -8 -20 -19 -17 -24 3 -5 1 -9 -5 -9 -12 0 -76 -60
-64 -60 4 0 3 -4 -2 -8 -15 -10 -58 -72 -50 -72 4 0 -1 -7 -9 -16 -9 -8 -14
-19 -11 -24 3 -5 0 -10 -6 -12 -6 -2 -11 -16 -11 -31 0 -15 -5 -27 -10 -27 -5
0 -6 -4 -3 -10 3 -5 2 -10 -3 -10 -5 0 -8 -13 -7 -30 1 -16 -2 -30 -6 -30 -4
0 -5 -10 -1 -22 4 -16 2 -19 -9 -13 -12 7 -12 6 -1 -7 7 -8 9 -24 5 -33 -3
-10 -2 -16 3 -13 5 4 8 -15 7 -43 -1 -29 3 -49 9 -49 6 0 8 -8 6 -18 -3 -10 1
-23 9 -30 7 -7 11 -17 8 -23 -4 -5 1 -12 9 -15 9 -3 13 -10 10 -15 -3 -5 2
-12 10 -15 9 -3 13 -10 10 -15 -3 -5 2 -12 10 -15 9 -3 13 -10 10 -15 -3 -5 0
-9 6 -9 6 0 16 -11 22 -25 6 -14 17 -25 25 -25 7 0 13 -6 13 -12 1 -13 13 -23
82 -71 21 -13 34 -27 31 -31 -4 -3 1 -6 10 -6 10 0 17 -5 17 -11 0 -5 4 -8 9
-4 5 3 16 -2 24 -10 9 -8 23 -15 31 -15 9 0 16 -5 16 -11 0 -5 5 -7 10 -4 6 3
10 1 10 -5 0 -6 4 -8 10 -5 5 3 22 -2 36 -12 15 -9 39 -19 53 -21 14 -2 30 -7
36 -13 5 -5 21 -9 36 -9 15 0 30 -4 33 -9 3 -4 17 -7 31 -6 14 2 25 0 25 -4 0
-5 12 -6 26 -3 19 3 25 1 20 -7 -4 -6 -2 -11 4 -11 6 0 8 -10 5 -23 -3 -12 -7
-37 -8 -54 -1 -18 -6 -33 -12 -33 -5 0 -3 -5 5 -10 10 -6 11 -10 3 -10 -7 0
-13 -7 -13 -15 0 -18 6 -16 -95 -20 -44 -1 -82 -3 -85 -5 -3 -1 -8 -2 -12 -1
-5 0 -8 -5 -8 -11 0 -9 -4 -8 -10 2 -7 11 -10 11 -10 2 0 -7 -4 -11 -9 -7 -5
3 -13 0 -16 -6 -4 -5 -14 -8 -22 -5 -11 4 -13 2 -9 -9 3 -8 0 -15 -7 -15 -34
-1 35 -24 78 -26 28 -1 52 -3 55 -3 3 -1 -11 -9 -30 -20 -19 -10 -36 -25 -38
-34 -3 -12 8 -15 58 -15 66 1 110 -16 110 -42 0 -32 20 -40 56 -22 19 8 34 19
34 24 0 4 6 5 13 2 7 -2 26 6 41 19 26 23 64 28 115 15 7 -2 15 5 16 15 4 20
-19 70 -28 61 -3 -3 -5 8 -5 25 1 17 6 31 11 31 6 0 8 3 4 6 -3 4 0 19 8 34 8
15 11 30 8 34 -4 3 -1 6 5 6 7 0 11 3 10 7 -4 14 14 58 30 76 15 16 14 17 -4
12 -12 -4 -10 -1 6 8 13 8 32 13 42 12 10 -2 18 1 18 7 0 7 6 6 15 -2 12 -10
15 -10 15 1 0 10 3 10 11 2 9 -9 18 -7 37 5 15 9 23 12 20 6 -4 -6 -1 -11 7
-11 8 0 12 4 9 9 -3 4 1 8 8 8 34 1 94 13 103 20 6 5 27 11 48 15 20 4 37 11
37 17 0 5 5 6 10 3 6 -4 17 -1 25 5 8 7 15 9 15 4 0 -5 4 -3 9 4 4 7 14 14 22
16 22 4 114 49 117 58 2 5 8 6 13 2 5 -3 9 -1 9 5 0 6 6 8 14 5 7 -3 16 2 20
11 3 9 10 14 15 10 6 -3 14 3 20 12 6 10 11 14 11 9 0 -5 12 4 27 20 15 16 29
29 32 28 7 0 16 7 67 54 19 17 42 32 50 32 8 0 14 5 14 10 0 6 5 10 10 10 12
0 60 45 60 56 0 4 18 24 40 45 21 21 42 49 46 63 3 15 11 23 17 19 6 -3 7 -1
3 5 -4 7 -14 12 -23 12 -12 0 -13 3 -3 15 6 8 9 19 5 25 -3 5 -2 10 3 10 5 0
8 10 6 23 -1 12 -3 26 -3 30 -1 5 -5 5 -11 2 -5 -3 -10 -1 -10 6 0 10 -3 10
-12 1 -7 -7 -22 -12 -35 -12 -13 0 -23 -4 -23 -10 0 -5 -9 -10 -19 -10 -11 0
-23 -5 -26 -10 -11 -18 -35 -11 -35 10 0 13 -7 20 -19 20 -11 0 -23 5 -26 10
-3 6 -19 10 -34 10 -15 0 -31 3 -35 8 -8 7 -13 8 -42 11 -9 0 -12 6 -8 13 4 6
3 8 -4 4 -6 -3 -23 -1 -39 5 -15 7 -32 13 -38 15 -33 9 -82 31 -93 42 -8 7
-17 10 -22 7 -5 -3 -10 0 -12 5 -2 6 -13 12 -26 13 -12 0 -22 5 -22 9 0 4 -9
8 -20 8 -11 0 -20 3 -20 8 0 4 -11 12 -25 19 -14 6 -23 7 -20 3 3 -4 -6 -3
-19 3 -13 7 -22 15 -20 19 3 4 -2 5 -10 2 -9 -4 -16 -1 -16 6 0 7 -7 10 -15 6
-8 -3 -19 2 -24 12 -8 13 -10 13 -11 3 0 -11 -4 -10 -16 5 -8 10 -12 12 -8 4
5 -10 0 -9 -14 4 -12 11 -22 16 -22 11 0 -4 -12 0 -26 10 -18 11 -24 12 -18 4
6 -11 4 -11 -10 0 -9 8 -29 15 -44 16 -15 1 -47 8 -72 15 -25 7 -62 13 -83 13
-20 -1 -40 3 -43 8 -3 5 -13 5 -24 -1 -13 -7 -20 -6 -23 3 -4 9 -6 8 -6 -2 -1
-11 -4 -11 -16 -1 -12 10 -15 10 -15 0 0 -10 -3 -10 -15 0 -8 7 -15 8 -15 3 0
-5 -21 -9 -47 -8 -37 0 -48 4 -51 18 -4 22 27 107 40 107 5 0 6 5 3 10 -3 6
-3 16 2 23 9 15 14 36 14 60 0 9 6 17 12 17 7 0 6 4 -3 10 -8 5 -10 10 -5 10
6 0 11 24 10 55 0 30 4 55 8 55 4 0 3 9 -3 19 -13 26 -13 34 3 25 9 -6 9 -4 1
7 -6 8 -10 22 -9 32 2 9 0 17 -4 17 -4 0 -8 9 -9 20 -1 11 -3 29 -4 40 -1 11
-6 20 -10 20 -4 0 -8 4 -8 10 0 15 -47 80 -54 73 -3 -4 -6 1 -6 11 0 9 -4 14
-10 11 -5 -3 -10 -2 -10 3 0 10 -92 54 -125 59 -16 2 -17 1 -5 -7 9 -6 10 -10
3 -10 -6 0 -14 4 -17 8 -3 5 -21 9 -41 10 -26 1 -34 -2 -28 -11 5 -9 3 -9 -9
0 -8 7 -18 10 -22 6z m1384 -1107 c0 -2 -8 -10 -17 -17 -16 -13 -17 -12 -4 4
13 16 21 21 21 13z m-47 -31 c-3 -9 -8 -14 -10 -11 -3 3 -2 9 2 15 9 16 15 13
8 -4z m-833 -578 c0 6 9 9 21 6 14 -4 17 -8 8 -13 -6 -5 -9 -15 -6 -23 3 -9
-1 -21 -8 -27 -8 -7 -12 -16 -9 -21 3 -5 0 -9 -6 -9 -6 0 -10 -10 -9 -22 2
-13 -3 -33 -9 -45 -7 -13 -10 -23 -7 -23 4 0 3 -5 0 -11 -5 -6 -12 -4 -22 8
-8 10 -11 12 -7 4 4 -8 3 -12 -3 -8 -10 6 -9 78 1 96 4 5 1 13 -5 17 -9 5 -8
10 2 18 18 15 22 36 7 36 -7 1 -2 7 12 15 19 10 27 10 32 2 6 -9 8 -9 8 0z"/>
</g>
</svg>
