<svg xmlns="http://www.w3.org/2000/svg" xmlns:xlink="http://www.w3.org/1999/xlink"><defs><style>.sprite-symbol-usage{display:none}.sprite-symbol-usage:target{display:inline}</style><symbol viewBox="0 0 1000 1000" id="facebook"><path d="M990 500c0-270.6-219.4-490-490-490S10 229.4 10 500s219.4 490 490 490 490-219.4 490-490zm-935.5 0C54.5 254 254 54.5 500 54.5S945.5 254 945.5 500 746.1 945.5 500 945.5C254 945.5 54.5 746 54.5 500z"/><path d="M518.8 782.8V500h93.3l14.7-93.7h-108v-47c0-24.5 8-47.8 43.1-47.8h70.2V218h-99.6c-83.7 0-106.6 55.1-106.6 131.6v56.7h-57.5V500h57.5v282.8h92.9z"/></symbol><symbol viewBox="0 0 512 512" id="instagram"><path fill="currentColor" d="M256 109.3c47.8 0 53.4.2 72.3 1 17.4.8 26.9 3.7 33.2 6.2 8.4 3.2 14.3 7.1 20.6 13.4 6.3 6.3 10.1 12.2 13.4 20.6 2.5 6.3 5.4 15.8 6.2 33.2.9 18.9 1 24.5 1 72.3s-.2 53.4-1 72.3c-.8 17.4-3.7 26.9-6.2 33.2-3.2 8.4-7.1 14.3-13.4 20.6-6.3 6.3-12.2 10.1-20.6 13.4-6.3 2.5-15.8 5.4-33.2 6.2-18.9.9-24.5 1-72.3 1s-53.4-.2-72.3-1c-17.4-.8-26.9-3.7-33.2-6.2-8.4-3.2-14.3-7.1-20.6-13.4-6.3-6.3-10.1-12.2-13.4-20.6-2.5-6.3-5.4-15.8-6.2-33.2-.9-18.9-1-24.5-1-72.3s.2-53.4 1-72.3c.8-17.4 3.7-26.9 6.2-33.2 3.2-8.4 7.1-14.3 13.4-20.6 6.3-6.3 12.2-10.1 20.6-13.4 6.3-2.5 15.8-5.4 33.2-6.2 18.9-.8 24.5-1 72.3-1m0-32.2c-48.6 0-54.7.2-73.8 1.1-19 .9-32.1 3.9-43.4 8.3-11.8 4.6-21.7 10.7-31.7 20.6C97.2 117 91 127 86.5 138.8c-4.4 11.4-7.4 24.4-8.3 43.4-.9 19.1-1.1 25.2-1.1 73.8 0 48.6.2 54.7 1.1 73.8.9 19 3.9 32.1 8.3 43.4 4.6 11.8 10.7 21.7 20.6 31.7 9.9 9.9 19.9 16.1 31.7 20.6 11.4 4.4 24.4 7.4 43.4 8.3 19.1.9 25.2 1.1 73.8 1.1s54.7-.2 73.8-1.1c19-.9 32.1-3.9 43.4-8.3 11.8-4.6 21.7-10.7 31.7-20.6 9.9-9.9 16.1-19.9 20.6-31.7 4.4-11.4 7.4-24.4 8.3-43.4.9-19.1 1.1-25.2 1.1-73.8s-.2-54.7-1.1-73.8c-.9-19-3.9-32.1-8.3-43.4-4.6-11.8-10.7-21.7-20.6-31.7C395 97.2 385 91 373.2 86.5c-11.4-4.4-24.4-7.4-43.4-8.3-19.1-.9-25.2-1.1-73.8-1.1z"/><path fill="currentColor" d="M256 164.1c-50.7 0-91.9 41.1-91.9 91.9s41.1 91.9 91.9 91.9 91.9-41.1 91.9-91.9-41.2-91.9-91.9-91.9zm0 151.5c-32.9 0-59.6-26.7-59.6-59.6s26.7-59.6 59.6-59.6 59.6 26.7 59.6 59.6-26.7 59.6-59.6 59.6z"/><circle fill="currentColor" cx="351.5" cy="160.5" r="21.5"/></symbol><symbol viewBox="0 0 273.4 222.2" id="twitter"><path d="M273.4 26.3c-10.1 4.5-20.9 7.5-32.2 8.8 11.6-6.9 20.5-17.9 24.7-31-10.9 6.4-22.9 11.1-35.7 13.6A55.919 55.919 0 0 0 189.3 0c-31 0-56.1 25.1-56.1 56.1 0 4.4.5 8.7 1.5 12.8C88 66.5 46.7 44.2 19 10.3c-4.8 8.3-7.6 17.9-7.6 28.2 0 19.5 9.9 36.6 25 46.7-9.2-.3-17.8-2.8-25.4-7v.7c0 27.2 19.3 49.8 45 55-4.7 1.3-9.7 2-14.8 2-3.6 0-7.1-.4-10.6-1 7.1 22.3 27.9 38.5 52.4 39-19.2 15-43.4 24-69.7 24-4.5 0-9-.3-13.4-.8 24.8 15.9 54.3 25.2 86 25.2 103.2 0 159.6-85.5 159.6-159.6 0-2.4-.1-4.9-.2-7.3 11.1-8 20.6-17.9 28.1-29.1z"/></symbol></defs><use id="facebook-usage" xlink:href="#facebook" class="sprite-symbol-usage"/><use id="instagram-usage" xlink:href="#instagram" class="sprite-symbol-usage"/><use id="twitter-usage" xlink:href="#twitter" class="sprite-symbol-usage"/></svg>